PathFileType	4	(X/Y/Z)	59_1_tpose_p1_0-145_filt_butterworth.trc
DataRate	CameraRate	NumFrames	NumMarkers	Units	OrigDataRate	OrigDataStartFrame	OrigNumFrames
39.0	39.0	5	27	m	39.0	126	145
Frame#	Time	RHip			RKnee			RAnkle			RBigToe			RSmallToe			RHeel			LHip			LKnee			LAnkle			LBigToe			LSmallToe			LHeel			Neck			Head			Nose			RShoulder			RElbow			RWrist			RThumb			RIndex			RPinky			LShoulder			LElbow			LWrist			LThumb			LIndex			LPinky			
		X1	Y1	Z1	X2	Y2	Z2	X3	Y3	Z3	X4	Y4	Z4	X5	Y5	Z5	X6	Y6	Z6	X7	Y7	Z7	X8	Y8	Z8	X9	Y9	Z9	X10	Y10	Z10	X11	Y11	Z11	X12	Y12	Z12	X13	Y13	Z13	X14	Y14	Z14	X15	Y15	Z15	X16	Y16	Z16	X17	Y17	Z17	X18	Y18	Z18	X19	Y19	Z19	X20	Y20	Z20	X21	Y21	Z21	X22	Y22	Z22	X23	Y23	Z23	X24	Y24	Z24	X25	Y25	Z25	X26	Y26	Z26	X27	Y27	Z27	
126	3.230769230769231	0.3228315692704715	0.4795670247453099	1.0573668013588333	0.3013085566766145	0.6096951228854914	1.4860651644012253	0.3017331121888857	0.7518032165727238	1.883587658851726	0.2817301387232008	0.5774606285018424	1.9489487343544443	0.3433256881518354	0.5909912584404446	1.9283803372443638	0.2851898995288268	0.8428049643378461	1.9524943358381264	0.08947851051783723	0.4716350323528819	1.0561639315504832	0.10330100280697876	0.6435277125611468	1.5090236752408983	0.09948681833661462	0.7244968202287108	1.8739331822993273	0.12710257476993256	0.5911978546653509	1.9450605121843143	0.06658474085060881	0.606537458715027	1.9246672654785821	0.1095903259050609	0.7815087435105743	1.9260403704347426	0.228524320146682	0.3833220717141824	0.4931955711436613	0.22987922115142845	0.3295463045826179	0.23940868659177683	0.21821229750732202	0.25586728256810654	0.3822710769903216	0.38446732592962973	0.39599256762445834	0.5524095395233228	0.65106301496702	0.38861336680998226	0.5473407381484757	0.8781622187283908	0.3578742461382349	0.5241807256606406	1.0050512882528855	0.35480090125731906	0.5255199023937194	1.0290664620476107	0.36221556366258945	0.5187840685357887	0.9987801321508178	0.4249842023170307	0.530773233067998	0.05077558593693943	0.39033294278718267	0.5420624238138188	-0.20207539231224428	0.4210852069492114	0.5337740508854006	-0.42857226266516874	0.4685135444437007	0.5105697967138467	-0.5005200409277449	0.45319187102349245	0.5448463700815243	-0.5458617499203028	0.4855846912525189	0.5196025192493751	-0.5480650794688751	0.48831660933848237	0.5098030353327836
127	3.2564102564102564	0.3229814348758852	0.48030255923170323	1.0575593984171239	0.3012636597540965	0.609511972989505	1.4860810599531207	0.301757578636037	0.7517898412999848	1.8835040863211963	0.2819445248244058	0.577459324225439	1.9538176381339118	0.34360449816967187	0.5901361147691275	1.9299774432930574	0.2852009654683647	0.8428327304766174	1.9525622699139564	0.08893753030388071	0.4689302431335094	1.0569845984733002	0.10345764039472882	0.6444556806184478	1.5106065987263015	0.10051817654717876	0.7296858690797468	1.873952204369211	0.1270489005552571	0.5903476959867682	1.943818347936064	0.06651620469185256	0.6066523754530939	1.92470880849968	0.10970788487901759	0.7811494829070923	1.926211190280156	0.22854798888930203	0.383382693194906	0.4932040641032448	0.23003042718143452	0.32895403659031874	0.23937694546798655	0.2180776943554539	0.25572978492448634	0.3826719331886342	0.3854805800012252	0.3921452962595444	0.5523264194732673	0.6518267499740156	0.3842984003649612	0.5473700701266325	0.8755158067248452	0.3505971791138238	0.525511715071743	0.9989258678849349	0.34609024203432703	0.5277082233606207	1.0285708155122644	0.35908875595966827	0.5201829726078251	1.0007076248729287	0.4150099182876767	0.5350721256568874	0.05082033875074726	0.39041831667985366	0.5420085648785055	-0.2036915286847092	0.42434630397435896	0.5335656478572819	-0.4271360093778567	0.4589925279140149	0.5130376700460977	-0.49944122659442824	0.4420379123052218	0.5474724972197383	-0.5457024646922617	0.4818357872382324	0.5238552660873222	-0.5453729078787154	0.48252484782298566	0.515487915994099
128	3.282051282051282	0.3233102700719055	0.479658192900548	1.0564510891300343	0.3012362416751386	0.6096121900791227	1.4864048912283374	0.30177849848222454	0.7517464663079735	1.8834640241615852	0.2820500707730753	0.5769097911399086	1.9548874435701498	0.3437592288791812	0.589590746958843	1.9314020737763844	0.2851982551428767	0.8428303239210169	1.952616851172448	0.09049605385110329	0.4762474148498852	1.0577779893449388	0.1033314156118276	0.6451176592191044	1.5115001525942444	0.10169067772311544	0.7356791532852112	1.873917688040822	0.1265903517483151	0.5902748601257789	1.9426947646766795	0.06646901812299792	0.6067355104550094	1.9247195968247857	0.11033983919692816	0.7805450355141558	1.9263326263153184	0.22857093166044296	0.3834348276964484	0.4932448370691437	0.22998092251651625	0.3289539419295238	0.2394120031790044	0.21793838341326205	0.2556165583261706	0.3824736249220735	0.3873421053375111	0.385040657919009	0.5522203218933726	0.6517299177054476	0.3769045785436625	0.5475037037810413	0.8733335031280328	0.34037254232250247	0.5280726300720587	0.9913750731204811	0.332038448092554	0.5292993187373892	1.0248778367426596	0.3501786684363935	0.5234079034397033	1.000709628541018	0.3935443312512136	0.5411787352940104	0.05086757811337113	0.39055961316237586	0.5419590382615318	-0.20397441727810572	0.4240802459518791	0.5334532280886287	-0.42553796890707074	0.4490042324354634	0.518068263380163	-0.49228685742217276	0.430106013337006	0.5510716947567752	-0.5453121616996185	0.47138217369231505	0.5302752519696805	-0.5409394249928559	0.46743975328728204	0.5245166855142689
129	3.3076923076923075	0.3235661606237844	0.478946813334194	1.0543222438675839	0.30148689069236856	0.6104400303443542	1.4869682886586602	0.30178309086133115	0.7517382804052556	1.8834433048261778	0.28204319281044826	0.5760224245044145	1.951853417095649	0.34378660951917284	0.5895501275754244	1.9316239537680957	0.2851265354714151	0.84269529269518	1.9523583349735105	0.09152438201266093	0.4813171746267194	1.0576212116496315	0.1034111369451606	0.6452050573827659	1.5109442940729276	0.101734983249073	0.7341985696080792	1.8741275793469812	0.1253883594150363	0.5901754967367218	1.944243300783739	0.06672292789488526	0.6060652464835392	1.9243983299948941	0.11057527021375865	0.779850628550234	1.9246009129867558	0.2285818711484441	0.3834246616809028	0.49345484325520766	0.22992024342044892	0.3290842783368786	0.2394764385105399	0.2179294157382557	0.2556316133993502	0.3824285469627344	0.3884113185922353	0.38091720218081965	0.5521484510365591	0.6504935775021458	0.3725263272679569	0.547724241660007	0.8737145335077108	0.335480918417993	0.5295917853606842	0.991072697454932	0.32553651987574667	0.5306130811311673	1.0208699438749473	0.34091829746873836	0.5268747628494427	0.9995577389896291	0.37641442403602654	0.5452797458846645	0.05089635486677618	0.3906065433803652	0.5419816677231631	-0.20370680102319094	0.4239830251649931	0.5348513759095292	-0.42869585041006025	0.44487950534868964	0.522097275851189	-0.49318049824186905	0.42981084496041155	0.5528036728625698	-0.5453741161346637	0.4602020435606593	0.5356950675642398	-0.5397828404723333	0.4558728770325561	0.5307743592879863
130	3.333333333333333	0.3225351080343008	0.4827868578479866	1.0538243857854452	0.301889447169055	0.6105913870298392	1.4868162019760551	0.30176862706947977	0.75175301706166	1.8833977694580821	0.2820397787942569	0.5755298836325791	1.9498563566883904	0.34377106425527304	0.5896730610997758	1.9314279868371864	0.2850883299772846	0.842628582381227	1.9522991055270373	0.09148143861506643	0.4812979147240806	1.057479368146279	0.10341618662618997	0.6449525897600841	1.5108843845235627	0.10123175655684949	0.7268130079507715	1.874169813112664	0.1243580518742955	0.5897259589443213	1.9460820930496028	0.06680573291374213	0.6060637101804577	1.9243878729655801	0.11018278560877245	0.7789003321106125	1.921682634130487	0.2285823779921604	0.38340773054912247	0.4935122689952762	0.2299213574455532	0.329076626878789	0.23956664451926785	0.21799626315292697	0.25568505547438247	0.3823737974380624	0.38836131152519243	0.3810650776407218	0.5521513376427741	0.6504751569494369	0.37247201839066624	0.5478566934435394	0.8745270841499695	0.3354154130566792	0.5298044614261133	0.9948307609298706	0.32691899996096707	0.5332296584564383	1.0199715431990977	0.3376582906141381	0.5311922076694783	0.9995806013348635	0.37351740505904363	0.5480470024485522	0.05092150147752553	0.3905650201880932	0.5419984667106466	-0.20204723953957354	0.42397640463726166	0.5376931211794052	-0.4324454496603666	0.4434107356081193	0.5244422464125414	-0.4967579015095567	0.4331986252909063	0.5554473219876911	-0.5456391465881261	0.4558427789511381	0.5403438134919529	-0.5405977307162328	0.4511033028264766	0.5337915636098387
